{"title":"Love.Is.All.You.Need.2012.DVDRip.AC3.XviD.HORiZON-ArtSubs","uid":8064702,"size":1681861337,"categoryP":"video","categoryS":"movies","magnet":"?xt=urn:btih:4f2eaa48adce8a411f438cef1b216f109d824929&amp;dn=Love.Is.All.You.Need.2012.DVDRip.AC3.XviD.HORiZON-ArtSubs&amp;tr=udp%3A%2F%2Ftracker.openbittorrent.com%3A80&amp;tr=udp%3A%2F%2Fopen.demonii.com%3A1337&amp;tr=udp%3A%2F%2Ftracker.coppersurfer.tk%3A6969&amp;tr=udp%3A%2F%2Fexodus.desync.com%3A6969","seeders":17,"leechers":3,"uploader":"lletaif","files":3,"time":1359147977,"description":"Title: Love Is All You Need Aka Den skaldede frisor\n\nCountry:  Denmark/2012\n\nLanguage:  Danish, English, Italian\n\nSubtitle:  Danish\n\nDirector: Susanne Bier\n\nWriters: Anders Thomas Jensen (screenplay), Susanne Bier (story)\n\nStars: Pierce Brosnan, Kim Bodnia and Trine Dyrholm\n\nPlot: A hairdresser who has lost her hair to cancer finds out her husband is having an affair, travels to Italy for her daughter's wedding and meets a widower who still blames the world for the loss of his wife. \n\nTrailer: &lt;a href=&quot;\nhttp://www.bandes-annonces.fr/film-2012/bande-annonce-loveisallyouneed.html&quot; rel=&quot;nofollow&quot; target=&quot;_NEW&quot;&gt;\nhttp://www.bandes-annonces.fr/film-2012/bande-annonce-loveisallyouneed.html&lt;/a&gt;\n\nImdb: &lt;a href=&quot;\nhttp://www.imdb.com/title/tt1854236/?ref_=sr_1&quot; rel=&quot;nofollow&quot; target=&quot;_NEW&quot;&gt;\nhttp://www.imdb.com/title/tt1854236/?ref_=sr_1&lt;/a&gt; \n\nMedia Info:\n\nGeneral\nComplete name                            : Love.Is.All.You.Need.2012.DVDRip.AC3.XviD.HORiZON-ArtSubs\nFormat                                   : AVI\nFormat/Info                              : Audio Video Interleave\nFile size                                : 1.56 GiB\nDuration                                 : 1h 51mn\nOverall bit rate                         : 2 008 Kbps\nWriting application                      : FairUse Wizard - http://fairusewizard.com\nWriting library                          : The best and REALLY easy backup tool\n\nVideo\nID                                       : 0\nFormat                                   : MPEG-4 Visual\nFormat profile                           : Advanced Simple@L5\nFormat settings, BVOP                    : 1\nFormat settings, QPel                    : No\nFormat settings, GMC                     : No warppoints\nFormat settings, Matrix                  : Default (MPEG)\nMuxing mode                              : Packed bitstream\nCodec ID                                 : XVID\nCodec ID/Hint                            : XviD\nDuration                                 : 1h 51mn\nBit rate                                 : 1 550 Kbps\nWidth                                    : 712 pixels\nHeight                                   : 296 pixels\nDisplay aspect ratio                     : 2.40:1\nFrame rate                               : 25.000 fps\nColor space                              : YUV\nChroma subsampling                       : 4:2:0\nBit depth                                : 8 bits\nScan type                                : Progressive\nCompression mode                         : Lossy\nBits/(Pixel*Frame)                       : 0.294\nStream size                              : 1.20 GiB (77%)\nWriting library                          : XviD 1.2.1 (UTC 2008-12-04)\n\nAudio\nID                                       : 1\nFormat                                   : AC-3\nFormat/Info                              : Audio Coding 3\nMode extension                           : CM (complete main)\nFormat settings, Endianness              : Big\nCodec ID                                 : 2000\nDuration                                 : 1h 51mn\nBit rate mode                            : Constant\nBit rate                                 : 448 Kbps\nChannel(s)                               : 6 channels\nChannel positions                        : Front: L C R, Side: L R, LFE\nSampling rate                            : 48.0 KHz\nBit depth                                : 16 bits\nCompression mode                         : Lossy\nStream size                              : 356 MiB (22%)\nAlignment                                : Split accross interleaves\nInterleave, duration                     : 40 ms (1.00 video frame)\nInterleave, preload duration             : 500 ms\n\n","torrent":{"xt":"urn:btih:4f2eaa48adce8a411f438cef1b216f109d824929","amp;dn":"Love.Is.All.You.Need.2012.DVDRip.AC3.XviD.HORiZON-ArtSubs","amp;tr":["udp%3A%2F%2Ftracker.openbittorrent.com%3A80","udp%3A%2F%2Fopen.demonii.com%3A1337","udp%3A%2F%2Ftracker.coppersurfer.tk%3A6969","udp%3A%2F%2Fexodus.desync.com%3A6969"],"infoHash":"4f2eaa48adce8a411f438cef1b216f109d824929","infoHashBuffer":{"type":"Buffer","data":[79,46,170,72,173,206,138,65,31,67,140,239,27,33,111,16,157,130,73,41]},"announce":[],"urlList":[]}}